<?xml version="1.0" encoding="UTF-8" standalone="no"?>
<!-- Created with Inkscape (http://www.inkscape.org/) -->

<svg
   xmlns:dc="http://purl.org/dc/elements/1.1/"
   xmlns:cc="http://creativecommons.org/ns#"
   xmlns:rdf="http://www.w3.org/1999/02/22-rdf-syntax-ns#"
   xmlns:svg="http://www.w3.org/2000/svg"
   xmlns="http://www.w3.org/2000/svg"
   xmlns:sodipodi="http://sodipodi.sourceforge.net/DTD/sodipodi-0.dtd"
   xmlns:inkscape="http://www.inkscape.org/namespaces/inkscape"
   version="1.1"
   width="48"
   height="48"
   id="svg2"
   inkscape:version="0.48.4 r9939"
   sodipodi:docname="ibus-lanxang-tn.svg">
  <sodipodi:namedview
     pagecolor="#ffffff"
     bordercolor="#666666"
     borderopacity="1"
     objecttolerance="10"
     gridtolerance="10"
     guidetolerance="10"
     inkscape:pageopacity="0"
     inkscape:pageshadow="2"
     inkscape:window-width="796"
     inkscape:window-height="734"
     id="namedview8"
     showgrid="false"
     inkscape:zoom="4.9166667"
     inkscape:cx="43.835861"
     inkscape:cy="25.547274"
     inkscape:window-x="0"
     inkscape:window-y="32"
     inkscape:window-maximized="0"
     inkscape:current-layer="svg2" />
  <defs
     id="defs4" />
  <metadata
     id="metadata7">
    <rdf:RDF>
      <cc:Work
         rdf:about="">
        <dc:format>image/svg+xml</dc:format>
        <dc:type
           rdf:resource="http://purl.org/dc/dcmitype/StillImage" />
        <dc:title />
      </cc:Work>
    </rdf:RDF>
  </metadata>
  <g
     style="font-size:64px;font-style:normal;font-variant:normal;font-weight:500;font-stretch:normal;line-height:125%;letter-spacing:0px;word-spacing:0px;fill:#000000;fill-opacity:1;stroke:none;font-family:ST-TT-Tlwg Typo;-inkscape-font-specification:ST-TT-Tlwg Typo Medium"
     id="text2986">
    <path
       d="m 10.542969,29.195312 c 0.937497,-0.937488 2.044267,-1.406238 3.320312,-1.40625 1.276036,1.2e-5 2.382806,0.468762 3.320313,1.40625 0.937491,0.93751 1.40624,2.04428 1.40625,3.320313 -10e-6,0.937506 -0.286468,1.809901 -0.859375,2.617187 -0.546883,0.807296 -1.250008,1.393233 -2.109375,1.757813 0.234368,0.07813 0.455722,0.11719 0.664062,0.117187 0.338534,3e-6 0.833326,-0.20833 1.484375,-0.625 0.651033,-0.416663 1.302074,-0.85937 1.953125,-1.328125 0.677072,-0.494786 1.458321,-0.950515 2.34375,-1.367187 0.885403,-0.41666 1.679673,-0.624993 2.382813,-0.625 0.911442,7e-6 1.888003,0.325527 2.929687,0.976562 1.041648,0.651047 1.979147,1.315109 2.8125,1.992188 0.833312,0.651045 1.432269,0.976565 1.796875,0.976562 1.197893,3e-6 2.200496,-0.559892 3.007813,-1.679687 0.807265,-1.119786 1.36716,-2.499993 1.679687,-4.140625 0.312472,-1.640615 0.468722,-3.502592 0.46875,-5.585938 -2.8e-5,-4.505189 -1.445339,-8.059873 -4.335937,-10.664062 -2.890646,-2.630181 -6.536476,-3.945284 -10.9375,-3.945313 -2.395844,2.9e-5 -4.830737,0.507841 -7.304688,1.523438 -2.473961,0.989609 -3.710939,1.875025 -3.710937,2.65625 -2e-6,0.364607 0.976559,0.677107 2.929687,0.9375 1.97916,0.234398 4.088533,0.351586 6.328125,0.351562 3.411444,2.4e-5 7.330711,-0.403622 11.757813,-1.210937 -1.197939,1.19794 -2.682312,2.044293 -4.453125,2.539062 -1.744809,0.468772 -4.179702,0.703147 -7.304688,0.703125 -3.854174,2.2e-5 -6.953129,-0.273416 -9.296875,-0.820312 -2.3177073,-0.546853 -3.4765603,-1.380185 -3.4765622,-2.5 1.9e-6,-1.041641 0.6901054,-2.161432 2.0703124,-3.359375 1.4062478,-1.197888 3.2552048,-2.2135113 5.5468748,-3.0468748 2.3177,-0.8593432 4.622386,-1.2890303 6.914063,-1.2890626 3.515608,3.23e-5 6.679668,0.7161775 9.492187,2.1484376 2.838517,1.4062788 5.091119,3.5026308 6.757813,6.2890618 1.692677,2.760438 2.539031,5.989602 2.539062,9.6875 -3.1e-5,2.890637 -0.286489,5.416676 -0.859375,7.578125 -0.546905,2.161463 -1.484404,3.932295 -2.8125,5.3125 -1.328151,1.354167 -2.994816,2.03125 -5,2.03125 -0.885438,0 -1.848979,-0.325521 -2.890625,-0.976562 -1.015644,-0.651041 -1.940122,-1.302082 -2.773437,-1.953125 -0.83335,-0.677081 -1.458349,-1.015622 -1.875,-1.015625 -0.364599,3e-6 -0.885431,0.208336 -1.5625,0.625 -0.677097,0.416669 -1.341159,0.872397 -1.992188,1.367187 -0.651053,0.468751 -1.40626,0.911459 -2.265625,1.328125 -0.859383,0.416666 -1.640633,0.625 -2.34375,0.625 -1.718755,0 -3.346358,-0.79427 -4.882812,-2.382812 -1.5104178,-1.61458 -2.2656251,-3.489578 -2.2656252,-5.625 10e-8,-1.276033 0.4687494,-2.382803 1.4062502,-3.320313 m 1.796875,1.796875 c -0.41667,0.416675 -0.625003,0.924487 -0.625,1.523438 -3e-6,0.598965 0.20833,1.106777 0.625,1.523437 0.416663,0.416672 0.924475,0.625005 1.523437,0.625 0.598953,5e-6 1.106765,-0.208328 1.523438,-0.625 0.41666,-0.41666 0.624993,-0.924472 0.625,-1.523437 -7e-6,-0.598951 -0.20834,-1.106763 -0.625,-1.523438 -0.416673,-0.416657 -0.924485,-0.62499 -1.523438,-0.625 -0.598962,10e-6 -1.106774,0.208343 -1.523437,0.625"
       style="font-size:80px;fill:#0000ff;fill-opacity:1;font-family:Khottabun;-inkscape-font-specification:Khottabun Medium"
       id="path2991"
       inkscape:connector-curvature="0" />
  </g>
</svg>
