<?xml version="1.0" encoding="UTF-8" standalone="no"?>
<!-- Created with Inkscape (http://www.inkscape.org/) -->

<svg
   xmlns:dc="http://purl.org/dc/elements/1.1/"
   xmlns:cc="http://creativecommons.org/ns#"
   xmlns:rdf="http://www.w3.org/1999/02/22-rdf-syntax-ns#"
   xmlns:svg="http://www.w3.org/2000/svg"
   xmlns="http://www.w3.org/2000/svg"
   xmlns:sodipodi="http://sodipodi.sourceforge.net/DTD/sodipodi-0.dtd"
   xmlns:inkscape="http://www.inkscape.org/namespaces/inkscape"
   version="1.1"
   width="48"
   height="48"
   id="svg2"
   inkscape:version="0.92.3 (2405546, 2018-03-11)"
   sodipodi:docname="ibus-lanxang-pali.svg">
  <sodipodi:namedview
     pagecolor="#ffffff"
     bordercolor="#666666"
     borderopacity="1"
     objecttolerance="10"
     gridtolerance="10"
     guidetolerance="10"
     inkscape:pageopacity="0"
     inkscape:pageshadow="2"
     inkscape:window-width="796"
     inkscape:window-height="734"
     id="namedview8"
     showgrid="false"
     inkscape:zoom="4.9166667"
     inkscape:cx="43.835861"
     inkscape:cy="25.547274"
     inkscape:window-x="0"
     inkscape:window-y="32"
     inkscape:window-maximized="0"
     inkscape:current-layer="text2986"
     inkscape:snap-text-baseline="false" />
  <defs
     id="defs4" />
  <metadata
     id="metadata7">
    <rdf:RDF>
      <cc:Work
         rdf:about="">
        <dc:format>image/svg+xml</dc:format>
        <dc:type
           rdf:resource="http://purl.org/dc/dcmitype/StillImage" />
        <dc:title />
      </cc:Work>
    </rdf:RDF>
  </metadata>
  <g
     style="font-size:64px;font-style:normal;font-variant:normal;font-weight:500;font-stretch:normal;line-height:125%;letter-spacing:0px;word-spacing:0px;fill:#000000;fill-opacity:1;stroke:none;font-family:ST-TT-Tlwg Typo;-inkscape-font-specification:ST-TT-Tlwg Typo Medium"
     id="text2986">
    <g
       aria-label="ລ"
       style="font-style:normal;font-variant:normal;font-weight:normal;font-stretch:normal;font-size:56px;line-height:1.25;font-family:Viravong;-inkscape-font-specification:Viravong;letter-spacing:0px;word-spacing:0px;fill:#0000ff;fill-opacity:1;stroke:none"
       id="text3713">
      <path
         d="m 7.7552541,15.009359 q 0,-1.848 1.512,-3.304 1.5679999,-1.512 4.0319999,-2.2959999 2.464,-0.84 5.04,-1.232 2.632,-0.392 5.152,-0.392 8.008,0 12.264,4.3679999 4.256,4.312 4.256,12.376 0,2.8 -0.112,4.872 -0.112,2.016 -0.56,4.424 -0.392,2.408 -1.176,3.92 -0.728,1.512 -2.128,2.576 -1.4,1.008 -3.36,1.008 -2.856,0 -4.536,-2.688 -0.504,-0.728 -2.24,-4.816 -1.736,-4.088 -2.968,-5.32 -0.672,-0.672 -2.352,-1.232 -1.624,-0.616 -2.8,-0.616 -6.608,0 -6.608,5.04 0,0.392 0.112,1.176 2.24,-2.24 5.152,-2.24 1.848,0 3.36,1.624 1.568,1.568 1.568,3.808 0,2.128 -1.512,3.696 -1.512,1.568 -3.36,1.568 -4.256,0 -6.8319999,-2.464 -2.52,-2.464 -2.52,-6.944 0,-4.48 3.1919999,-6.776 3.192,-2.296 7.728,-2.296 3.696,0 7.56,2.52 0.728,0.448 1.568,1.904 0.896,1.456 1.512,2.856 0.616,1.344 1.512,3.472 0.896,2.072 1.232,2.744 0.056,0.112 0.168,0.392 0.168,0.224 0.224,0.392 0.112,0.112 0.28,0.28 0.224,0.112 0.448,0.112 1.064,0 1.792,-1.344 0.728,-1.4 1.008,-3.584 0.336,-2.24 0.448,-4.144 0.168,-1.96 0.168,-3.92 0,-12.936 -12.488,-12.936 -4.424,0 -8.064,0.784 -3.64,0.728 -3.64,2.464 0,0.168 0,0.336 0.056,0.168 0.112,0.336 0.112,0.112 0.168,0.224 0.056,0.112 0.224,0.224 0.168,0.056 0.28,0.112 0.112,0.056 0.336,0.168 0.224,0.056 0.336,0.112 0.168,0.056 0.448,0.168 0.336,0.056 0.448,0.112 -0.168,0.784 -1.4,3.416 -1.456,-0.672 -2.352,-1.232 -0.8959999,-0.56 -1.7919999,-1.568 -0.84,-1.064 -0.84,-2.24 z m 6.7759999,22.4 q 0.728,0.728 1.624,0.728 0.896,0 1.624,-0.728 0.784,-0.784 0.784,-1.68 0,-0.896 -0.784,-1.624 -0.728,-0.784 -1.624,-0.784 -0.896,0 -1.624,0.784 -0.728,0.728 -0.728,1.624 0,0.896 0.728,1.68 z"
         style=""
         id="path4520" />
    </g>
  </g>
</svg>
