<?xml version="1.0" encoding="UTF-8" standalone="no"?>
<!-- Created with Inkscape (http://www.inkscape.org/) -->

<svg
   xmlns:dc="http://purl.org/dc/elements/1.1/"
   xmlns:cc="http://creativecommons.org/ns#"
   xmlns:rdf="http://www.w3.org/1999/02/22-rdf-syntax-ns#"
   xmlns:svg="http://www.w3.org/2000/svg"
   xmlns="http://www.w3.org/2000/svg"
   version="1.1"
   width="48"
   height="48"
   id="svg2">
  <defs
     id="defs4" />
  <metadata
     id="metadata7">
    <rdf:RDF>
      <cc:Work
         rdf:about="">
        <dc:format>image/svg+xml</dc:format>
        <dc:type
           rdf:resource="http://purl.org/dc/dcmitype/StillImage" />
        <dc:title></dc:title>
      </cc:Work>
    </rdf:RDF>
  </metadata>
  <g
     transform="translate(-0.3565383,-1005.2943)"
     id="layer1">
    <g
       id="text2985"
       style="font-size:40px;font-style:normal;font-variant:normal;font-weight:500;font-stretch:normal;line-height:125%;letter-spacing:0px;word-spacing:0px;fill:#0000ff;fill-opacity:1;stroke:none;font-family:Tlwg Typo;-inkscape-font-specification:Tlwg Typo Medium">
      <path
         d="m 9.5127883,1028.5131 c -3.7e-6,2.9427 0.5989537,5.3385 1.7968747,7.1875 1.19791,1.8229 3.111971,3.6458 5.742188,5.4687 1.145821,-1.5885 2.23957,-2.7734 3.28125,-3.5547 1.067693,-0.7812 2.317691,-1.1718 3.75,-1.1719 2.239563,10e-5 4.557269,1.5365 6.953125,4.6094 5.442677,-3.8541 8.164029,-8.164 8.164062,-12.9297 -3.3e-5,-3.2812 -1.38024,-6.0416 -4.140625,-8.2812 -2.734401,-2.2396 -5.989606,-3.3594 -9.765625,-3.3594 -2.2396,0 -4.544285,0.3907 -6.914062,1.1719 -2.369802,0.7813 -4.479175,1.9662 -6.328125,3.5547 -1.197922,1.0417 -2.4348998,1.5625 -3.7109377,1.5625 -0.6250019,0 -0.9375016,-0.4036 -0.9375,-1.211 -1.6e-6,-1.7447 0.8463518,-3.3333 2.5390625,-4.7656 1.7187442,-1.4323 3.7109292,-2.4869 5.9765622,-3.1641 2.291655,-0.703 4.505194,-1.0546 6.640625,-1.0546 -2.187514,0.3906 -4.81772,1.3802 -7.890625,2.9687 -3.04688,1.5886 -4.570316,2.9037 -4.570312,3.9453 -4e-6,0.1303 0.05208,0.2344 0.15625,0.3125 4.010408,-4.5572 9.023424,-6.8359 15.039062,-6.8359 3.124978,0 6.0156,0.6641 8.671875,1.9922 2.682261,1.3281 4.804655,3.1641 6.367188,5.5078 1.588505,2.3177 2.382775,4.8698 2.382812,7.6562 -3.7e-5,6.823 -4.257845,12.7865 -12.773437,17.8907 -0.234399,-0.9896 -1.067732,-2.2396 -2.5,-3.75 -1.40627,-1.5365 -2.526061,-2.3047 -3.359375,-2.3047 -1.432309,0 -3.632827,2.0182 -6.601563,6.0547 -2.447926,-1.7188 -4.440111,-3.2943 -5.976562,-4.7266 -1.5364627,-1.4323 -2.7083365,-2.8516 -3.5156252,-4.2578 -0.7812514,-1.4063 -1.315105,-2.7344 -1.6015625,-3.9844 -0.260417,-1.276 -0.3906252,-2.7864 -0.390625,-4.5312 -2e-7,-1.6667 0.4296869,-2.9557 1.2890625,-3.8672 0.8854143,-0.9375 2.0963506,-1.4063 3.6328122,-1.4063 0.07812,0.078 0.130203,0.1563 0.15625,0.2344 -1.041671,1.3542 -1.5625034,3.0339 -1.5624997,5.0391"
         id="path2986"
         style="font-size:80px;font-family:Khottabun;-inkscape-font-specification:Khottabun Medium" />
    </g>
  </g>
</svg>
